# xmcd CD database file
#
# Track frame offsets:
#	150
#	6565
#	25857
#	46954
#	67930
#	83673
#	101402
#	119923
#	141553
#	157850
#	181091
#
# Disc length: 2610 seconds
#
# Revision: 0
# Processed by: cddbd v1.5.1PL2 Copyright (c) Steve Scherf et al.
# Submitted via: CDex 1.51
#
DISCID=8c0a300b
DTITLE=徳永憲 - スワン
DYEAR=2005
DGENRE=Rock
TTITLE0=赤い髪
TTITLE1=コートを召しませ
TTITLE2=7(セブン)
TTITLE3=ブレーキ痕
TTITLE4=サンビーム
TTITLE5=パーソナル・ノー
TTITLE6=ジューンブライド
TTITLE7=S(スピード)
TTITLE8=君へと傾くから
TTITLE9=僕らはこれじゃ終われない
TTITLE10=爪の匂い
EXTD=YEAR: 2005.02/11
EXTT0=
EXTT1=
EXTT2=
EXTT3=
EXTT4=
EXTT5=
EXTT6=
EXTT7=
EXTT8=
EXTT9=
EXTT10=
PLAYORDER=
